<?xml version="1.0" encoding="UTF-8" standalone="no"?>
<svg width="38" height="46" xmlns="http://www.w3.org/2000/svg" style="enable-background:new 0 0 38 46" xml:space="preserve">
  <path d="M32.4 5.4c7.4 7.4 7.5 19.5.1 26.9l-.1.1L19 45.9 5.5 32.4c-7.3-7.6-7.1-19.6.5-27 7.3-7.1 19-7.1 26.4 0z" style="fill:#a0a0a0"/>
  <circle cx="19" cy="18.9" r="16" style="fill:#fff"/>
  <path d="m18.7 7.3-9.2 5 10.3 5.8c.1.1.2.2.2.3v8.7c0 .1-.1.2-.2.3l-.5.3h-.4l-.6-.3c-.1-.1-.2-.2-.2-.3v-7.8c0-.1 0-.1-.1-.1l-9-5v10.2c0 .3.1.5.4.6l9.3 5.5c.2.1.5.1.7 0l9.2-5.5c.2-.1.3-.4.4-.6V14l-6.1 3.7h-.4l-.5-.3c-.1-.1-.2-.2-.2-.3v-.6c0-.1.1-.2.2-.3 0 0 0-.1.1-.1l6.3-3.8-9-5c-.1-.1-.2-.1-.4-.1-.1 0-.2.1-.3.1" style="fill:#ce1b3d"/>
</svg>