<?xml version="1.0" encoding="UTF-8" standalone="no"?>
<svg width="48" height="58" xmlns="http://www.w3.org/2000/svg" style="enable-background:new 0 0 48 58" xml:space="preserve">
  <path d="M41 7.1c9.3 9.3 9.4 24.4.1 33.8l-.1.1-16.9 17-17-17c-9.4-9.3-9.5-24.5-.2-33.9s24.5-9.5 33.9-.2c0 .1.1.2.2.2" style="fill:#ff5a00"/>
  <path d="M44 24.4c0 11-9 20-20 20s-20-9-20-20 9-20 20-20 20 8.9 20 20" style="fill:#fff"/>
  <path d="m23.6 10.5-11 6.1 12.4 7c.1.1.2.2.2.3v10.5c0 .1-.1.3-.2.3l-.7.4h-.4l-.7-.4c-.1-.1-.2-.2-.2-.3V25c0-.1-.1-.2-.1-.2L12 18.7V31c0 .3.2.6.4.8l11.2 6.6c.2.1.6.1.9 0l11.1-6.6c.2-.1.4-.5.4-.8V18.6L28.6 23h-.2c-.1 0-.2 0-.2-.1l-.6-.4c-.1-.1-.2-.2-.2-.3v-.8c0-.1.1-.3.2-.3l.1-.1 7.6-4.5-10.8-6c-.1-.1-.3-.1-.4-.1-.2 0-.4 0-.5.1" style="fill:#ce1b3d"/>
</svg>