<?xml version="1.0" encoding="UTF-8" standalone="no"?>
<svg xmlns="http://www.w3.org/2000/svg" data-name="Layer 1" width="48" height="58">
  <path d="M40.957 7.016a24 24 0 0 1 .1 33.866l-.1.1L24 57.964 7.042 40.982A24 24 0 1 1 40.957 7.016Z" style="fill:#ff5a00"/>
  <g transform="matrix(1.24977 0 0 1.25006 4.072 3.751)">
    <circle cx="16" cy="16" r="16" style="fill:#404041"/>
    <path d="M12 15.828a9.86 9.86 0 0 1-3.173.55 9.832 9.832 0 0 1-3.179-.55 9.726 9.726 0 0 1 3.179-.55 9.774 9.774 0 0 1 3.173.55m4.408-8.072a9.333 9.333 0 0 0-1.312-2.9 9.495 9.495 0 0 0-2.24-2.272 9.353 9.353 0 0 0 1.313 2.9 9.548 9.548 0 0 0 2.237 2.27m-3.234 3.486a9.535 9.535 0 0 0-2.536-1.94 9.774 9.774 0 0 0-3.067-.977 9.6 9.6 0 0 0 2.541 1.945 9.737 9.737 0 0 0 3.062.977m3 7.041a10.821 10.821 0 0 0 1.7-.685 2.791 2.791 0 0 1-2.008-2.861 8.324 8.324 0 0 1 7.257-7.088 8.933 8.933 0 0 0-1.223-.084 8.254 8.254 0 0 0-.255 16.507h.329a9.488 9.488 0 0 0 1.142-.082 8.363 8.363 0 0 1-6.942-5.712zm.234 5.594a9.556 9.556 0 0 0-2.237 2.272 9.332 9.332 0 0 0-1.313 2.9 9.1 9.1 0 0 0 3.55-5.168m-3.234-3.483a9.7 9.7 0 0 0-3.062.973 9.591 9.591 0 0 0-2.541 1.948 9.746 9.746 0 0 0 3.067-.976 9.556 9.556 0 0 0 2.536-1.945" style="fill:#ffca05"/>
  </g>
</svg>
